<svg xmlns="http://www.w3.org/2000/svg" width="39" height="38.101" viewBox="0 0 39 38.101">
  <g id="_003-counter" data-name="003-counter" transform="translate(-2.5)">
    <path id="Path_101" data-name="Path 101" d="M40.839,0H3.161A.63.63,0,0,0,2.5.6V34.529a.63.63,0,0,0,.661.6H4.484v2.381a.63.63,0,0,0,.661.6H38.855a.63.63,0,0,0,.661-.6V35.124h1.323a.63.63,0,0,0,.661-.6V.6A.63.63,0,0,0,40.839,0ZM30.274,16.073h2a.612.612,0,0,1,.641.577s0,.005,0,.009,0,.007,0,.011A1.9,1.9,0,0,0,34.9,18.456h1.323a.6.6,0,1,1,0,1.191H30.274a1.9,1.9,0,0,1-1.983-1.786,1.9,1.9,0,0,1,1.983-1.787Zm-.019,5.358h-.007a2,2,0,0,1-1.8-1.1,3.546,3.546,0,0,0,1.829.5h5.955a2.129,2.129,0,0,0,.654-.11v.111a.63.63,0,0,1-.652.594Zm7.951-.594V19.05a1.9,1.9,0,0,0-1.983-1.786H34.9a.631.631,0,0,1-.661-.6s0-.005,0-.009,0-.007,0-.011a1.875,1.875,0,0,0-1.963-1.768h-2a3.158,3.158,0,0,0-3.305,2.978v1.788a2.768,2.768,0,0,0,.676,1.784H23.587a3.963,3.963,0,0,0,1.4-2.977,4.421,4.421,0,0,0-4.627-4.167,4.421,4.421,0,0,0-4.627,4.167,3.966,3.966,0,0,0,1.4,2.977h-2.1a1.347,1.347,0,0,0,.034-.3,1.38,1.38,0,0,0-.339-.893,1.345,1.345,0,0,0,0-1.786,1.384,1.384,0,0,0,.339-.893A1.578,1.578,0,0,0,13.4,16.073H7.458a1.578,1.578,0,0,0-1.653,1.488,1.38,1.38,0,0,0,.339.893,1.346,1.346,0,0,0,0,1.787,1.38,1.38,0,0,0-.339.893,1.347,1.347,0,0,0,.034.3H3.822V13.69h4.6l.026,0,.054,0H19.657l.026,0,.013,0h2.618l.013,0,.026,0h4.576l.026,0,.013,0h2.618l.013,0,.026,0H34.2l.026,0,.013,0h2.618l.013,0,.026,0h3.28v7.742H38.084a1.616,1.616,0,0,0,.122-.594ZM17.051,18.454a3.157,3.157,0,0,1,3.305-2.976,3.157,3.157,0,0,1,3.305,2.976,3.157,3.157,0,0,1-3.305,2.977A3.157,3.157,0,0,1,17.051,18.454ZM7.458,21.432a.3.3,0,1,1,0-.6H13.4a.3.3,0,1,1,0,.6Zm-.331-3.87a.316.316,0,0,1,.331-.3H13.4a.3.3,0,1,1,0,.6H7.458A.316.316,0,0,1,7.127,17.562Zm.331,2.084a.3.3,0,1,1,0-.6H13.4a.3.3,0,1,1,0,.6ZM34.214,12.5a.6.6,0,1,1,.013-1.188h2.644a.6.6,0,1,1,.013,1.188Zm-7.272,0a.6.6,0,1,1,.013-1.188H29.6a.6.6,0,1,1,.013,1.188Zm-7.272,0a.6.6,0,1,1,.013-1.188h2.644A.6.6,0,1,1,22.34,12.5ZM23,8.93h2.644a.6.6,0,1,1,0,1.191H23A.6.6,0,1,1,23,8.93Zm3.967-2.381h2.644a.6.6,0,1,1,0,1.191H26.964a.6.6,0,1,1,0-1.191ZM33.575,8.93a.6.6,0,1,1,0,1.191H30.931a.6.6,0,1,1,0-1.191ZM27.5,10.12a1.51,1.51,0,0,0,0-1.191H29.07a1.51,1.51,0,0,0,0,1.191Zm-3.314,1.191h.906a1.512,1.512,0,0,0,0,1.188h-.9a1.512,1.512,0,0,0,0-1.188Zm7.272,0h.906a1.508,1.508,0,0,0,0,1.188h-.9a1.512,1.512,0,0,0,0-1.188Zm5.41-1.191H35.436a1.609,1.609,0,0,0,.122-.6,1.9,1.9,0,0,0-1.983-1.786H31.469a1.609,1.609,0,0,0,.122-.6,1.9,1.9,0,0,0-1.983-1.786H26.964a1.9,1.9,0,0,0-1.983,1.786,1.6,1.6,0,0,0,.122.6H23a1.9,1.9,0,0,0-1.983,1.786,1.6,1.6,0,0,0,.122.6H19.683A1.9,1.9,0,0,0,17.7,11.906a1.6,1.6,0,0,0,.122.593H11.529a2.761,2.761,0,0,0,.795-1.188h2.734a.665.665,0,0,0,1.322,0V10.12a.665.665,0,0,0-1.322,0H12.324C11.9,8.742,10.059,7.739,8.449,7.739a3.157,3.157,0,0,0-3.305,2.977A2.768,2.768,0,0,0,5.82,12.5h-2V1.191H40.178V12.5H38.732a1.628,1.628,0,0,0,.121-.593A1.9,1.9,0,0,0,36.87,10.12ZM8.423,12.5a1.89,1.89,0,0,1-1.957-1.784A1.9,1.9,0,0,1,8.449,8.93c1.155,0,2.645.866,2.645,1.786S9.626,12.487,8.476,12.5ZM38.194,36.91H5.806V35.124H38.194Zm1.984-2.977H3.822V22.622H30.248l.026,0h9.9Z" transform="translate(0)" fill="#fff"/>
    <path id="Path_102" data-name="Path 102" d="M27.119,30h-.007a.6.6,0,1,0,.007,0Z" transform="translate(-8.087 -12.138)" fill="#fff"/>
    <path id="Path_103" data-name="Path 103" d="M31.124,30h-.006a.6.6,0,1,0,.006,0Z" transform="translate(-9.436 -12.138)" fill="#fff"/>
    <path id="Path_104" data-name="Path 104" d="M29.117,31.993h-.007a.6.6,0,1,0,.007,0Z" transform="translate(-8.76 -12.947)" fill="#fff"/>
    <path id="Path_105" data-name="Path 105" d="M29.117,28h-.007a.6.6,0,1,0,.007,0Z" transform="translate(-8.76 -11.33)" fill="#fff"/>
    <path id="Path_106" data-name="Path 106" d="M45.14,30.184a.6.6,0,1,0,0-1.191h-.007a.6.6,0,0,0,.007,1.191Z" transform="translate(-14.154 -11.733)" fill="#fff"/>
    <path id="Path_107" data-name="Path 107" d="M14.644,5a3.743,3.743,0,0,0-3.49,2.381H8.692a.6.6,0,1,0-1.191,0V8.574a.6.6,0,0,0,1.191,0h2.462a3.744,3.744,0,0,0,3.49,2.381,2.977,2.977,0,1,0,0-5.953Zm0,4.763c-1.04,0-2.382-.866-2.382-1.786S13.6,6.193,14.644,6.193a1.786,1.786,0,1,1,0,3.572Z" transform="translate(-2.024 -2.024)" fill="#fff"/>
  </g>
</svg>
