<svg xmlns="http://www.w3.org/2000/svg" width="26" height="26" viewBox="0 0 26 26">
  <g id="Group_867" data-name="Group 867" transform="translate(-159 -586)">
    <path id="Subtraction_1" data-name="Subtraction 1" d="M2435-3540a12.914,12.914,0,0,1-9.192-3.808A12.916,12.916,0,0,1,2422-3553a12.914,12.914,0,0,1,3.808-9.192A12.914,12.914,0,0,1,2435-3566a12.916,12.916,0,0,1,9.193,3.808A12.915,12.915,0,0,1,2448-3553a12.917,12.917,0,0,1-3.808,9.193A12.917,12.917,0,0,1,2435-3540Zm-3.675-19.916a6.8,6.8,0,0,0-6.791,6.79,6.8,6.8,0,0,0,6.791,6.792,6.3,6.3,0,0,0,6.523-6.634,5.779,5.779,0,0,0-.112-1.131h-6.412v2.336h3.854a3.67,3.67,0,0,1-3.854,2.927,4.253,4.253,0,0,1-4.206-4.29,4.253,4.253,0,0,1,4.206-4.289,3.8,3.8,0,0,1,2.705,1.047l1.844-1.769A6.448,6.448,0,0,0,2431.325-3559.916Zm10.989,8.026v1.972h1.98v-1.972h1.972v-1.98h-1.972v-1.972h-1.98v1.972h-1.972v1.98Z" transform="translate(-2263 4152)" fill="#fff"/>
  </g>
</svg>
