<svg xmlns="http://www.w3.org/2000/svg" width="59.072" height="35.835" viewBox="0 0 59.072 35.835">
  <g id="Group_1234" data-name="Group 1234" transform="translate(-365 -437)">
    <path id="Path_1865" data-name="Path 1865" d="M54.92,100.486H14.045a.867.867,0,1,0,0,1.734H54.92a2.42,2.42,0,0,1,2.418,2.418V123.1a2.42,2.42,0,0,1-2.418,2.418H52.843v-5.65a.867.867,0,0,0-.867-.867H7.1a.867.867,0,0,0-.867.867v5.65H4.152A2.42,2.42,0,0,1,1.734,123.1V104.638a2.42,2.42,0,0,1,2.418-2.418h6.425a.867.867,0,1,0,0-1.734H4.152A4.157,4.157,0,0,0,0,104.638V123.1a4.157,4.157,0,0,0,4.152,4.152h9.027a.867.867,0,1,0,0-1.734H7.963v-1.524H42.425a.867.867,0,0,0,0-1.734H7.963v-1.524H51.109v1.524H45.893a.867.867,0,0,0,0,1.734h5.216v1.524H16.647a.867.867,0,1,0,0,1.734H54.92a4.157,4.157,0,0,0,4.152-4.152V104.638A4.157,4.157,0,0,0,54.92,100.486Z" transform="translate(365 336.514)" fill="#232323"/>
    <path id="Path_1866" data-name="Path 1866" d="M423.292,148.2a.867.867,0,1,0,0-1.734h-2.565a.867.867,0,1,0,0,1.734Z" transform="translate(-6.315 295.85)" fill="#232323"/>
    <path id="Path_1867" data-name="Path 1867" d="M260.963,148.2a.867.867,0,1,0,0-1.734H244.55a.867.867,0,1,0,0,1.734Z" transform="translate(149.492 295.85)" fill="#232323"/>
    <path id="Path_1868" data-name="Path 1868" d="M113.045,352.064a.867.867,0,0,0-.867.867,5.727,5.727,0,0,1-2.433,4.306.867.867,0,1,0,1,1.414,7.459,7.459,0,0,0,3.163-5.72A.867.867,0,0,0,113.045,352.064Z" transform="translate(268.267 114.024)" fill="#232323"/>
    <path id="Path_1869" data-name="Path 1869" d="M188.15,352.064a.867.867,0,0,0-.867.867v5.013a.867.867,0,0,0,1.734,0v-5.013A.867.867,0,0,0,188.15,352.064Z" transform="translate(199.371 114.024)" fill="#232323"/>
    <path id="Path_1870" data-name="Path 1870" d="M250.931,352.064a.867.867,0,0,0-.867.867v5.013a.867.867,0,1,0,1.734,0v-5.013A.867.867,0,0,0,250.931,352.064Z" transform="translate(143.849 114.024)" fill="#232323"/>
    <path id="Path_1871" data-name="Path 1871" d="M366.5,357.237a5.707,5.707,0,0,1-2.433-4.31.867.867,0,0,0-1.734,0,7.459,7.459,0,0,0,3.163,5.72.867.867,0,1,0,1-1.414Z" transform="translate(44.565 114.024)" fill="#232323"/>
    <path id="Path_1872" data-name="Path 1872" d="M309.493,352.064a.867.867,0,0,0-.867.867v5.013a.867.867,0,1,0,1.734,0v-5.013A.867.867,0,0,0,309.493,352.064Z" transform="translate(92.058 114.024)" fill="#232323"/>
  </g>
</svg>
