<svg xmlns="http://www.w3.org/2000/svg" width="82.605" height="25.603" viewBox="0 0 82.605 25.603">
  <g id="Group_1247" data-name="Group 1247" transform="translate(-347.254 -522.038)">
    <path id="Path_1874" data-name="Path 1874" d="M1773.633,175.282h82.6s-11.7,25.731-41.235,25.6a45.938,45.938,0,0,1-27.157-8.419A45.431,45.431,0,0,1,1773.633,175.282Z" transform="translate(-1426.379 346.755)" fill="#232323" opacity="0.51"/>
    <g id="Icon_feather-camera" data-name="Icon feather-camera" transform="translate(380.54 528.275)">
      <path id="Path_17" data-name="Path 17" d="M16.164,15.165A1.333,1.333,0,0,1,14.831,16.5h-12A1.333,1.333,0,0,1,1.5,15.165V7.833A1.333,1.333,0,0,1,2.833,6.5H5.5l1.333-2h4l1.333,2h2.666a1.333,1.333,0,0,1,1.333,1.333Z" transform="translate(-1.5 -4.5)" fill="none" stroke="#fff" stroke-linecap="round" stroke-linejoin="round" stroke-width="1"/>
      <path id="Path_18" data-name="Path 18" d="M17.332,16.166A2.666,2.666,0,1,1,14.666,13.5,2.666,2.666,0,0,1,17.332,16.166Z" transform="translate(-7.334 -9.501)" fill="none" stroke="#fff" stroke-linecap="round" stroke-linejoin="round" stroke-width="1"/>
    </g>
  </g>
</svg>
