<svg id="Group_1233" data-name="Group 1233" xmlns="http://www.w3.org/2000/svg" width="45.903" height="39" viewBox="0 0 45.903 39">
  <path id="Path_94" data-name="Path 94" d="M45.231,198.621a.7.7,0,0,0-.672.716v1.99H21.921V176.253a.7.7,0,0,0-.672-.716H6.007a.7.7,0,0,0-.672.716v25.075H1.345V174.883a.7.7,0,0,0-.672-.716.7.7,0,0,0-.672.716v27.161a.7.7,0,0,0,.672.716H45.231a.7.7,0,0,0,.672-.716v-2.706A.7.7,0,0,0,45.231,198.621ZM6.679,201.328V176.969h13.9v24.359Z" transform="translate(0 -163.76)" fill="#232323"/>
  <path id="Path_95" data-name="Path 95" d="M45.231,38.5H8.517a.688.688,0,0,0,0,1.376H44.559v5.045H1.345V39.876H5.708a.688.688,0,0,0,0-1.376H.672A.68.68,0,0,0,0,39.188v9.525a.68.68,0,0,0,.672.688.68.68,0,0,0,.672-.688V46.3H25.778V59.186a.68.68,0,0,0,.672.688H39.719a.68.68,0,0,0,.672-.688V46.3h4.167V72.2a.673.673,0,1,0,1.345,0V39.188A.68.68,0,0,0,45.231,38.5Zm-6.184,20H27.123V56.755H39.047Zm0-3.119H27.123V46.3H39.047Z" transform="translate(0 -38.5)" fill="#232323"/>
  <path id="Path_96" data-name="Path 96" d="M324.075,139.169h6.137a.575.575,0,0,0,0-1.151h-6.137a.575.575,0,1,0,0,1.151Z" transform="translate(-293.542 -129.05)" fill="#232323"/>
  <path id="Path_97" data-name="Path 97" d="M324.075,166.169h6.137a.575.575,0,0,0,0-1.151h-6.137a.575.575,0,1,0,0,1.151Z" transform="translate(-293.542 -153.617)" fill="#232323"/>
  <path id="Path_98" data-name="Path 98" d="M324.075,193.169h6.137a.575.575,0,0,0,0-1.151h-6.137a.575.575,0,1,0,0,1.151Z" transform="translate(-293.542 -178.183)" fill="#232323"/>
  <path id="Path_99" data-name="Path 99" d="M109.215,136.952a1.726,1.726,0,0,0,0-3.452h-3.989a1.726,1.726,0,1,0,0,3.452Zm-4.564-1.726a.576.576,0,0,1,.575-.575h3.989a.575.575,0,1,1,0,1.151h-3.989A.576.576,0,0,1,104.651,135.226Z" transform="translate(-93.907 -124.841)" fill="#232323"/>
  <path id="Path_100" data-name="Path 100" d="M103.037,249.18a.575.575,0,0,0-.787.206l-.555.949H100.3l1.22-1.22a.575.575,0,0,0-.814-.814l-1.22,1.22v-1.395l.948-.555a.575.575,0,1,0-.581-.993l-.943.552-.943-.552a.575.575,0,0,0-.581.993l.948.555v1.395l-1.22-1.22a.575.575,0,1,0-.814.814l1.22,1.22H96.127l-.555-.949a.575.575,0,1,0-.993.581l.552.943-.552.943a.575.575,0,1,0,.993.581l.555-.949h1.395l-1.22,1.22a.575.575,0,0,0,.814.814l1.22-1.22v1.395l-.948.555a.575.575,0,0,0,.581.993l.943-.552.943.552a.575.575,0,0,0,.581-.993l-.948-.555V252.3l1.22,1.22a.575.575,0,0,0,.814-.814l-1.22-1.22h1.395l.555.949a.575.575,0,1,0,.993-.581l-.551-.943.552-.943A.575.575,0,0,0,103.037,249.18Z" transform="translate(-85.673 -226.883)" fill="#232323"/>
</svg>
