<svg xmlns="http://www.w3.org/2000/svg" width="287" height="15" viewBox="0 0 287 15">
  <g id="Group_1255" data-name="Group 1255" transform="translate(-42 -77)">
    <path id="Path_1527" data-name="Path 1527" d="M0,0H267.425" transform="translate(51.639 84.5)" fill="#fe8e00" stroke="#fe8e00" stroke-width="1"/>
    <path id="Path_1529" data-name="Path 1529" d="M0,0H181.221" transform="translate(51.639 84.5)" fill="#fe8e00" stroke="#fe8e00" stroke-width="1"/>
    <g id="Group_484" data-name="Group 484" transform="translate(0 6)">
      <circle id="Ellipse_9" data-name="Ellipse 9" cx="4.5" cy="4.5" r="4.5" transform="translate(45 74)" fill="#fe8e00"/>
      <g id="Ellipse_13" data-name="Ellipse 13" transform="translate(42 71)" fill="none" stroke="#fe8e00" stroke-width="1">
        <circle cx="7.5" cy="7.5" r="7.5" stroke="none"/>
        <circle cx="7.5" cy="7.5" r="7" fill="none"/>
      </g>
    </g>
    <g id="Group_485" data-name="Group 485" transform="translate(-11)">
      <circle id="Ellipse_10" data-name="Ellipse 10" cx="4.5" cy="4.5" r="4.5" transform="translate(147 80)" fill="#fe8e00"/>
      <g id="Ellipse_33" data-name="Ellipse 33" transform="translate(144 77)" fill="none" stroke="#fe8e00" stroke-width="1">
        <circle cx="7.5" cy="7.5" r="7.5" stroke="none"/>
        <circle cx="7.5" cy="7.5" r="7" fill="none"/>
      </g>
    </g>
    <g id="Group_483" data-name="Group 483" transform="translate(-19)">
      <circle id="Ellipse_35" data-name="Ellipse 35" cx="4.5" cy="4.5" r="4.5" transform="translate(245 80)" fill="#fe8e00"/>
      <g id="Ellipse_36" data-name="Ellipse 36" transform="translate(242 77)" fill="none" stroke="#fe8e00" stroke-width="1">
        <circle cx="7.5" cy="7.5" r="7.5" stroke="none"/>
        <circle cx="7.5" cy="7.5" r="7" fill="none"/>
      </g>
    </g>
    <g id="Group_486" data-name="Group 486">
      <circle id="Ellipse_11" data-name="Ellipse 11" cx="4.5" cy="4.5" r="4.5" transform="translate(317 80)" fill="#fe8e00"/>
      <g id="Ellipse_34" data-name="Ellipse 34" transform="translate(314 77)" fill="none" stroke="#fe8e00" stroke-width="1">
        <circle cx="7.5" cy="7.5" r="7.5" stroke="none"/>
        <circle cx="7.5" cy="7.5" r="7" fill="none"/>
      </g>
    </g>
  </g>
</svg>
