<svg xmlns="http://www.w3.org/2000/svg" width="71.859" height="11.35" viewBox="0 0 71.859 11.35">
  <g id="Group_1240" data-name="Group 1240" transform="translate(-14 -465)">
    <path id="Icon_awesome-star" data-name="Icon awesome-star" d="M6.734.394,5.287,3.329,2.049,3.8a.71.71,0,0,0-.392,1.21L4,7.294l-.554,3.225a.709.709,0,0,0,1.028.747l2.9-1.523,2.9,1.523a.709.709,0,0,0,1.028-.747l-.554-3.225,2.343-2.283a.71.71,0,0,0-.392-1.21L9.454,3.329,8.007.394A.71.71,0,0,0,6.734.394Z" transform="translate(12.559 465.001)" fill="#fe8e00"/>
    <path id="Icon_awesome-star-2" data-name="Icon awesome-star" d="M6.734.394,5.287,3.329,2.049,3.8a.71.71,0,0,0-.392,1.21L4,7.294l-.554,3.225a.709.709,0,0,0,1.028.747l2.9-1.523,2.9,1.523a.709.709,0,0,0,1.028-.747l-.554-3.225,2.343-2.283a.71.71,0,0,0-.392-1.21L9.454,3.329,8.007.394A.71.71,0,0,0,6.734.394Z" transform="translate(27.559 465.001)" fill="#fe8e00"/>
    <path id="Icon_awesome-star-3" data-name="Icon awesome-star" d="M6.734.394,5.287,3.329,2.049,3.8a.71.71,0,0,0-.392,1.21L4,7.294l-.554,3.225a.709.709,0,0,0,1.028.747l2.9-1.523,2.9,1.523a.709.709,0,0,0,1.028-.747l-.554-3.225,2.343-2.283a.71.71,0,0,0-.392-1.21L9.454,3.329,8.007.394A.71.71,0,0,0,6.734.394Z" transform="translate(42.559 465.001)" fill="#fe8e00"/>
    <path id="Icon_awesome-star-4" data-name="Icon awesome-star" d="M6.734.394,5.287,3.329,2.049,3.8a.71.71,0,0,0-.392,1.21L4,7.294l-.554,3.225a.709.709,0,0,0,1.028.747l2.9-1.523,2.9,1.523a.709.709,0,0,0,1.028-.747l-.554-3.225,2.343-2.283a.71.71,0,0,0-.392-1.21L9.454,3.329,8.007.394A.71.71,0,0,0,6.734.394Z" transform="translate(57.559 465.001)" fill="#dfdfdf"/>
    <path id="Icon_awesome-star-5" data-name="Icon awesome-star" d="M6.734.394,5.287,3.329,2.049,3.8a.71.71,0,0,0-.392,1.21L4,7.294l-.554,3.225a.709.709,0,0,0,1.028.747l2.9-1.523,2.9,1.523a.709.709,0,0,0,1.028-.747l-.554-3.225,2.343-2.283a.71.71,0,0,0-.392-1.21L9.454,3.329,8.007.394A.71.71,0,0,0,6.734.394Z" transform="translate(72.559 465.001)" fill="#dfdfdf"/>
  </g>
</svg>
