<svg xmlns="http://www.w3.org/2000/svg" width="15.488" height="15.491" viewBox="0 0 15.488 15.491">
  <g id="Icon_ionic-ios-chatboxes" data-name="Icon ionic-ios-chatboxes" transform="translate(-3.375 -3.375)">
    <path id="Path_1591" data-name="Path 1591" d="M21.357,11.981H13.1A1.421,1.421,0,0,0,11.686,13.4v5.746A1.418,1.418,0,0,0,13.1,20.562h4.722a.407.407,0,0,1,.283.119l2.346,2.164c.13.127.346.074.346-.108V20.852c0-.223.142-.294.365-.294H21.2a1.55,1.55,0,0,0,1.568-1.415V13.4A1.413,1.413,0,0,0,21.357,11.981Z" transform="translate(-3.909 -4.048)" fill="#fff"/>
    <path id="Path_1592" data-name="Path 1592" d="M8.082,7.021h6.607V4.589a1.214,1.214,0,0,0-1.214-1.214H4.589A1.214,1.214,0,0,0,3.375,4.589v6.152a1.214,1.214,0,0,0,1.214,1.214H6.864V8.235A1.22,1.22,0,0,1,8.082,7.021Z" fill="#fff"/>
  </g>
</svg>
