<svg xmlns="http://www.w3.org/2000/svg" xmlns:xlink="http://www.w3.org/1999/xlink" width="12.533" height="13" viewBox="0 0 12.533 13">
  <defs>
    <clipPath id="clip-path">
      <rect width="12.533" height="13" fill="none"/>
    </clipPath>
  </defs>
  <g id="legal" clip-path="url(#clip-path)">
    <path id="Path_63" data-name="Path 63" d="M15.65,6.893V1.047H7V11.953h3.979a.524.524,0,0,1,0,1.047h-4.5a.523.523,0,0,1-.519-.523V.523A.523.523,0,0,1,6.482,0h9.687a.523.523,0,0,1,.519.523V6.893a.519.519,0,1,1-1.038,0Zm2.673,1.274a.517.517,0,0,0-.735.044L14.742,11.4l-1.427-1.387a.516.516,0,0,0-.735.017.527.527,0,0,0,.017.742l1.816,1.762a.508.508,0,0,0,.363.148h.017a.517.517,0,0,0,.363-.175l3.2-3.595A.53.53,0,0,0,18.322,8.166ZM13.747,3.054H9.077a.524.524,0,0,0,0,1.047h4.67a.524.524,0,0,0,0-1.047Zm.519,3.4a.523.523,0,0,0-.519-.523H9.077a.524.524,0,0,0,0,1.047h4.67A.523.523,0,0,0,14.266,6.456ZM9.077,8.725a.524.524,0,0,0,0,1.047H10.46a.524.524,0,0,0,0-1.047Z" transform="translate(-5.963)" fill="#fff"/>
  </g>
</svg>
