<svg xmlns="http://www.w3.org/2000/svg" width="24.681" height="24.681" viewBox="0 0 24.681 24.681">
  <path id="Subtraction_2" data-name="Subtraction 2" d="M12.34,24.681A12.341,12.341,0,0,1,3.614,3.615,12.341,12.341,0,0,1,21.067,21.067,12.261,12.261,0,0,1,12.34,24.681ZM5.4,17.195h0a8.723,8.723,0,0,0,4.61,1.311A8.346,8.346,0,0,0,18.564,10.2l-.008-.378a5.96,5.96,0,0,0,1.5-1.51,6.149,6.149,0,0,1-1.728.461,2.935,2.935,0,0,0,1.323-1.616,6.089,6.089,0,0,1-1.911.709,3.063,3.063,0,0,0-2.2-.921,2.966,2.966,0,0,0-3.006,2.918,2.847,2.847,0,0,0,.077.665,8.654,8.654,0,0,1-6.2-3.049,2.848,2.848,0,0,0-.408,1.467,2.89,2.89,0,0,0,1.337,2.428,3.041,3.041,0,0,1-1.363-.365v.037A2.951,2.951,0,0,0,8.4,13.91a3.153,3.153,0,0,1-.792.1,3.022,3.022,0,0,1-.566-.053,3,3,0,0,0,2.81,2.027,6.112,6.112,0,0,1-3.735,1.25A6.339,6.339,0,0,1,5.4,17.195Z" fill="#fe8e00"/>
</svg>
