<svg xmlns="http://www.w3.org/2000/svg" width="37.361" height="37.361" viewBox="1781 802.319 37.361 37.361"><path d="M1800.02 802.32c-10.13 0-18.342 8.147-18.342 18.199 0 3.438.962 6.654 2.632 9.398l-3.31 9.764 10.155-3.226a18.379 18.379 0 0 0 8.864 2.264c10.13 0 18.342-8.15 18.342-18.2 0-10.052-8.211-18.2-18.342-18.2Zm9.12 25.11c-.432 1.07-2.383 2.047-3.244 2.092-.86.045-.885.666-5.574-1.371-4.69-2.038-7.51-6.992-7.733-7.311-.222-.318-1.816-2.59-1.73-4.875.086-2.286 1.338-3.365 1.785-3.814.446-.449.958-.53 1.27-.534.37-.006.609-.011.882-.001.273.01.683-.057 1.038.887.355.944 1.205 3.265 1.313 3.502.109.236.176.51.009.815-.168.304-.254.494-.497.757-.245.263-.515.587-.734.788-.243.222-.497.465-.241.94.255.475 1.138 2.031 2.483 3.314 1.728 1.648 3.219 2.195 3.678 2.445.46.25.734.222 1.02-.078.283-.3 1.22-1.313 1.55-1.765.33-.454.639-.365 1.063-.195.423.172 2.682 1.381 3.142 1.63.46.25.766.379.876.576.11.199.075 1.129-.356 2.199Z" fill="#fff" fill-rule="evenodd" data-name="Icon ionic-logo-whatsapp"/></svg>