<svg xmlns="http://www.w3.org/2000/svg" width="36.681" height="36.681" viewBox="1663 803 36.681 36.681"><path d="M1681.34 839.68a18.22 18.22 0 0 1-12.969-5.37A18.22 18.22 0 0 1 1663 821.34c0-4.899 1.908-9.505 5.371-12.969A18.219 18.219 0 0 1 1681.34 803c4.9 0 9.505 1.908 12.97 5.372a18.221 18.221 0 0 1 5.37 12.97c0 4.898-1.907 9.504-5.37 12.968a18.222 18.222 0 0 1-12.97 5.37Zm-10.317-11.125v.002a12.964 12.964 0 0 0 6.851 1.948c7.96 0 12.716-6.276 12.716-12.343l-.012-.562a8.857 8.857 0 0 0 2.229-2.244 9.139 9.139 0 0 1-2.568.684 4.361 4.361 0 0 0 1.966-2.402 9.05 9.05 0 0 1-2.84 1.054 4.553 4.553 0 0 0-3.262-1.368c-2.464 0-4.468 1.945-4.468 4.336 0 .339.039.671.115.989-3.582-.175-6.938-1.827-9.21-4.532a4.233 4.233 0 0 0-.606 2.18c0 1.454.743 2.803 1.987 3.609a4.52 4.52 0 0 1-2.025-.543v.055c0 2.059 1.508 3.848 3.586 4.255-.393.102-.789.152-1.177.152a4.49 4.49 0 0 1-.841-.079c.583 1.768 2.26 2.98 4.176 3.012a9.084 9.084 0 0 1-5.551 1.858c-.351 0-.71-.02-1.066-.061Z" fill="#fafbfe" fill-rule="evenodd" data-name="Subtraction 2"/></svg>