<svg xmlns="http://www.w3.org/2000/svg" width="92" height="92" viewBox="1541 391.95 92 92"><g data-name="Group 1538"><g data-name="Ellipse 132"><path d="M1541 437.9a46 46 0 1 1 0 .1z" fill="#fe8e00" fill-rule="evenodd"/><path d="M1541.5 437.9a45.5 45.5 0 1 1 0 .1z" stroke-linejoin="round" stroke-linecap="round" stroke="#fe8e00" fill="transparent" stroke-width=".98913"/></g><g data-name="003-carpenter"><path d="M1574.016 424.217h1.22a10.901 10.901 0 0 0 21.743 0h1.22a.8.8 0 1 0 0-1.6h-1.223a10.912 10.912 0 0 0-3.955-7.623v-1.681a.8.8 0 0 0-1.6 0v.59a10.783 10.783 0 0 0-2.59-1.038v-.801a.8.8 0 0 0-.8-.8h-3.847a.8.8 0 0 0-.8.8v.801c-.905.232-1.775.58-2.59 1.037v-.59a.8.8 0 1 0-1.6 0v1.682a10.911 10.911 0 0 0-3.955 7.623h-1.223a.8.8 0 1 0 0 1.6Zm12.091 8.505a9.312 9.312 0 0 1-9.265-8.505h18.529a9.312 9.312 0 0 1-9.264 8.504Zm-6.913-15.518v3.44a.8.8 0 0 0 1.6 0v-4.86a9.222 9.222 0 0 1 2.59-1.26v6.12a.8.8 0 0 0 1.6 0v-7.78h2.247v7.78a.8.8 0 0 0 1.6 0v-6.12a9.222 9.222 0 0 1 2.59 1.26v4.86a.8.8 0 1 0 1.6 0v-3.44a9.297 9.297 0 0 1 2.355 5.413h-18.537a9.297 9.297 0 0 1 2.355-5.413Z" fill="#fafbfe" fill-rule="evenodd" data-name="Path 1884"/><path d="m1611.801 455.549-1.532-1.286-.412-3.426a.798.798 0 0 0-.183-.419l-.66-.787.452-.993a.8.8 0 0 0-.12-.852l-.696-.815.488-.951a.8.8 0 0 0-.09-.869l-.674-.837.457-.973a.826.826 0 0 0 .07-.439.8.8 0 0 0-.21-.457l-.7-.747.508-.994c.072-.15.1-.319.08-.485a.804.804 0 0 0-.215-.453l-.716-.753.522-.984a.823.823 0 0 0 .085-.493.8.8 0 0 0-.222-.451l-.693-.703.516-.98a.926.926 0 0 0 .082-.503.8.8 0 0 0-.226-.468l-.71-.718.526-.946a.944.944 0 0 0 .091-.53.798.798 0 0 0-.162-.393l-.711-.913.457-.828a.8.8 0 0 0 .094-.482l-.006-.058a.801.801 0 0 0-.213-.455l-.698-.747.51-.953a.89.89 0 0 0 .086-.506.8.8 0 0 0-.794-.7h-4.294a.8.8 0 0 0-.8.8v9.607a6.307 6.307 0 0 0-2.638-.583h-24.685a6.295 6.295 0 0 0-6.288 6.287v22.51a.8.8 0 0 0 .8.8h43.01a.8.8 0 0 0 .8-.8v-8.662a.8.8 0 0 0-.286-.612Zm-6.94-27.747-.166.31a.8.8 0 0 0 .122.928l.724.767-.45.809a.801.801 0 0 0 .068.878l.724.933-.573 1.032a.8.8 0 0 0 .131.952l.735.743-.528 1a.8.8 0 0 0 .137.933l.696.707-.517.98a.8.8 0 0 0 .126.925l.732.77-.512 1.003a.8.8 0 0 0 .128.91l.716.766-.44.94a.802.802 0 0 0 .1.84l.663.824-.495.967a.8.8 0 0 0 .104.885l.713.834-.45.989a.8.8 0 0 0 .114.846l.833.992.18 1.494-.499-.418a.798.798 0 0 0-.514-.187h-4.775v-24.352h2.173Zm-3.773 10.637v13.713h-1.015a.8.8 0 0 0-.8.8v11.07h-1.268v-26.396h.445a4.634 4.634 0 0 1 2.638.813Zm-4.683 8.478h-2.45v-9.291h2.45v9.29Zm-4.051 0h-12.494v-9.291h12.494v9.29Zm-14.094 0h-2.45v-9.291h2.45v9.29Zm-2.45 1.6h20.595v15.505h-20.595v-15.505Zm-6.733-6.204a4.693 4.693 0 0 1 4.688-4.687h.445v26.396h-5.133v-21.709Zm41.41 21.71h-9.614v-10.27h6.299l3.315 2.782v7.487Z" fill="#fafbfe" fill-rule="evenodd" data-name="Path 1885"/><path d="M1601.975 460.415a.8.8 0 0 0 .8.8h5.807a.8.8 0 1 0 0-1.6h-5.807a.8.8 0 0 0-.8.8Z" fill="#fafbfe" fill-rule="evenodd" data-name="Path 1886"/></g></g></svg>