<svg xmlns="http://www.w3.org/2000/svg" width="92" height="92" viewBox="288 391.95 92 92"><g data-name="Group 1535"><g data-name="Ellipse 132"><path d="M288 437.9a46 46 0 1 1 0 .1z" fill="#fe8e00" fill-rule="evenodd"/><path d="M288.5 437.9a45.5 45.5 0 1 1 0 .1z" stroke-linejoin="round" stroke-linecap="round" stroke="#fe8e00" fill="transparent" stroke-width=".98913"/></g><g data-name="001-settings"><path d="M363.291 419.767a1.414 1.414 0 0 0-1.01-1.003 1.406 1.406 0 0 0-1.368.37l-7.06 7.059a.788.788 0 0 1-1.113 0l-5.52-5.52a.789.789 0 0 1 0-1.114l7.06-7.06c.362-.361.5-.872.37-1.367a1.432 1.432 0 0 0-1.004-1.01 13.844 13.844 0 0 0-13.43 3.55 13.752 13.752 0 0 0-3.424 13.857l-5.756 5.755-12.147-12.147a1.922 1.922 0 0 0-1.399-.562c-.122-.012-.176-.065-.187-.188.01-.52-.194-1.03-.563-1.398l-6-6a2.031 2.031 0 0 0-2.868 0l-3.069 3.068a2.03 2.03 0 0 0 0 2.869l6 6c.368.368.876.576 1.399.562.122.015.177.063.187.188-.01.52.195 1.03.563 1.398l12.147 12.148-1.91 1.91a.87.87 0 0 0 1.23 1.229l13.74-13.74c.38-.38.513-.931.347-1.44a12.023 12.023 0 0 1 2.94-12.28 12.105 12.105 0 0 1 11.21-3.235l-6.665 6.664a2.53 2.53 0 0 0 0 3.573l5.52 5.52a2.53 2.53 0 0 0 3.572 0l6.665-6.665a12.019 12.019 0 0 1-1.887 9.606.87.87 0 1 0 1.423 1 13.76 13.76 0 0 0 2.007-11.597Zm-49.11 6.078a.184.184 0 0 1-.053-.134 1.906 1.906 0 0 0-.563-1.398 1.895 1.895 0 0 0-1.398-.563.2.2 0 0 1-.134-.054l-6-6a.29.29 0 0 1 0-.41l3.068-3.067a.29.29 0 0 1 .41 0l6 6a.185.185 0 0 1 .054.133c-.011.528.189 1.025.562 1.399.374.373.872.578 1.399.562.048 0 .098.019.133.054l12.148 12.147-3.478 3.478-12.148-12.147Z" fill="#fff" fill-rule="evenodd" data-name="Path 1871"/><path d="M345.884 436.621a13.817 13.817 0 0 0 12.36-2.126.87.87 0 0 0-1.043-1.391 12.077 12.077 0 0 1-10.969 1.803 1.411 1.411 0 0 0-1.44.348l-20.101 20.1a2.55 2.55 0 0 1-.56.424l-2.627 1.469a4.295 4.295 0 0 0-2.097 2.823 2.548 2.548 0 0 1-.688 1.257l-3.57 3.569a.235.235 0 0 1-.332 0l-6.3-6.3a.236.236 0 0 1 0-.333l3.55-3.551c.345-.346.78-.584 1.256-.688l.03-.007a4.295 4.295 0 0 0 2.824-2.097l1.499-2.68c.114-.206.257-.394.423-.56l3.468-3.468a.87.87 0 0 0-1.23-1.23l-3.468 3.468c-.279.28-.518.596-.71.94l-1.5 2.681a2.555 2.555 0 0 1-1.679 1.248l-.03.006a4.284 4.284 0 0 0-2.112 1.157l-3.552 3.551c-.77.77-.77 2.022 0 2.792l6.301 6.3c.77.77 2.022.77 2.792 0l3.57-3.569c.58-.58.98-1.31 1.156-2.112a2.555 2.555 0 0 1 1.247-1.68l2.628-1.469c.345-.193.661-.432.94-.711l8.271-8.271 2.115 2.115a2.587 2.587 0 0 0-.505 1.54c0 .696.27 1.351.763 1.844l8.018 8.018a16.563 16.563 0 0 0 4.708 3.3.87.87 0 1 0 .737-1.574 14.833 14.833 0 0 1-4.215-2.956l-8.018-8.018a.864.864 0 0 1-.255-.614c0-.233.09-.45.255-.615l5.374-5.374a.864.864 0 0 1 .615-.255c.232 0 .45.09.615.255l8.018 8.017a14.876 14.876 0 0 1 3.916 6.927c.089.474.488 1.306.016 1.7l-1.91 1.91c-.201.201-.498.283-.773.215a.869.869 0 1 0-.42 1.687 2.568 2.568 0 0 0 2.422-.672l1.911-1.911c.948-.875.815-2.235.442-3.35a16.616 16.616 0 0 0-4.375-7.735l-8.018-8.018a2.591 2.591 0 0 0-1.844-.764c-.562 0-1.095.18-1.54.506l-2.114-2.115 5.755-5.756Zm-4.893 9.077-3.478 3.478-2.092-2.091 3.478-3.478 2.092 2.091Z" fill="#fff" fill-rule="evenodd" data-name="Path 1872"/></g></g></svg>