<svg xmlns="http://www.w3.org/2000/svg" width="92" height="92" viewBox="914 391.95 92 92"><g data-name="Group 1539"><g data-name="Ellipse 132"><path d="M914 437.9a46 46 0 1 1 0 .1z" fill="#fe8e00" fill-rule="evenodd"/><path d="M914.5 437.9a45.5 45.5 0 1 1 0 .1z" stroke-linejoin="round" stroke-linecap="round" stroke="#fe8e00" fill="transparent" stroke-width=".98913"/></g><g data-name="002-newspaper"><path d="M983.138 414.09H945.48a2.6 2.6 0 0 0-2.598 2.598v3.944h-6.02a2.601 2.601 0 0 0-2.597 2.598v33.43a5.068 5.068 0 0 0 5.026 5.062H965.999a.754.754 0 1 0 0-1.507h-23.07a5.046 5.046 0 0 0 1.461-3.555V439.03a.754.754 0 0 0-1.508 0v17.631a3.558 3.558 0 0 1-3.535 3.554h-.02a3.559 3.559 0 0 1-3.554-3.554v-33.43c0-.6.489-1.09 1.09-1.09h6.02v14.074a.754.754 0 1 0 1.507 0v-19.526c0-.6.49-1.09 1.09-1.09h37.658c.601 0 1.09.49 1.09 1.09v39.972a3.559 3.559 0 0 1-3.554 3.555h-11.86a.754.754 0 1 0 0 1.508h11.86a5.068 5.068 0 0 0 5.062-5.063v-39.972a2.601 2.601 0 0 0-2.598-2.598Zm0 0" fill="#fafbfe" fill-rule="evenodd" data-name="Path 1873"/><path d="M950.784 444.175h10.34c.985 0 1.785-.8 1.785-1.784v-10.34c0-.984-.8-1.785-1.784-1.785h-10.341c-.984 0-1.784.8-1.784 1.784v10.341c0 .984.8 1.784 1.784 1.784Zm-.276-12.125c0-.152.124-.276.276-.276h10.34c.153 0 .277.124.277.276v10.341a.277.277 0 0 1-.276.276h-10.341a.276.276 0 0 1-.276-.276v-10.34Zm0 0" fill="#fafbfe" fill-rule="evenodd" data-name="Path 1874"/><path d="M965.65 431.774h13.993a.754.754 0 1 0 0-1.508H965.65a.754.754 0 1 0 0 1.508Zm0 0" fill="#fafbfe" fill-rule="evenodd" data-name="Path 1875"/><path d="M965.65 437.975h13.993a.754.754 0 0 0 0-1.508H965.65a.754.754 0 1 0 0 1.508Zm0 0" fill="#fafbfe" fill-rule="evenodd" data-name="Path 1876"/><path d="M965.65 444.175h13.993a.754.754 0 0 0 0-1.508H965.65a.754.754 0 1 0 0 1.508Zm0 0" fill="#fafbfe" fill-rule="evenodd" data-name="Path 1877"/><path d="M949.754 450.375h29.89a.754.754 0 1 0 0-1.508h-29.89a.754.754 0 0 0 0 1.508Zm0 0" fill="#fafbfe" fill-rule="evenodd" data-name="Path 1878"/><path d="M949.754 456.576h29.89a.754.754 0 1 0 0-1.508h-29.89a.754.754 0 1 0 0 1.508Zm0 0" fill="#fafbfe" fill-rule="evenodd" data-name="Path 1879"/><path d="M949.02 426.408v-7.967c0-.164.077-.289.233-.374.155-.086.344-.13.564-.13.295 0 .52.054.676.16.155.107.327.336.515.688l2.37 4.579v-4.935c0-.164.077-.286.233-.369a1.2 1.2 0 0 1 .564-.122c.221 0 .41.04.565.122.156.083.233.205.233.369v7.979c0 .156-.08.278-.24.368-.159.09-.345.135-.558.135-.434 0-.74-.167-.92-.503l-2.64-4.935v4.935c0 .156-.08.278-.239.368-.16.09-.346.135-.559.135-.22 0-.409-.044-.564-.135-.156-.09-.234-.212-.234-.368Zm0 0" fill="#fafbfe" fill-rule="evenodd" data-name="Path 1880"/><path d="M956.446 426.408v-7.967c0-.156.07-.278.21-.368a.883.883 0 0 1 .49-.135h4.37c.164 0 .29.07.375.208.086.14.129.3.129.48a.908.908 0 0 1-.135.503.418.418 0 0 1-.369.208h-3.474v2.455h1.866a.43.43 0 0 1 .369.19c.09.128.135.277.135.449a.74.74 0 0 1-.13.424.424.424 0 0 1-.374.19h-1.866v2.467h3.474a.42.42 0 0 1 .369.209c.09.14.135.307.135.503 0 .18-.043.34-.13.479a.413.413 0 0 1-.374.208h-4.37a.883.883 0 0 1-.49-.134.418.418 0 0 1-.21-.369Zm0 0" fill="#fafbfe" fill-rule="evenodd" data-name="Path 1881"/><path d="M962.818 418.576c0-.172.11-.321.331-.448.22-.127.45-.19.687-.19.295 0 .471.106.528.319l1.94 6.654 1.043-4.272c.074-.295.336-.443.786-.443.442 0 .7.148.773.443l1.044 4.272 1.94-6.654c.057-.213.233-.32.528-.32.237 0 .466.064.687.191.22.127.331.276.331.448a.47.47 0 0 1-.024.147l-2.43 7.722c-.124.36-.472.54-1.044.54-.246 0-.467-.047-.663-.141-.197-.094-.315-.227-.356-.399l-.786-3.314-.798 3.314c-.04.172-.16.305-.356.399a1.513 1.513 0 0 1-.663.141c-.253 0-.478-.047-.675-.141-.196-.094-.32-.227-.368-.399l-2.43-7.722a.46.46 0 0 1-.025-.147Zm0 0" fill="#fafbfe" fill-rule="evenodd" data-name="Path 1882"/><path d="M973.842 425.5c0-.188.071-.379.214-.571.143-.192.305-.289.485-.289.106 0 .227.052.362.154.135.101.266.214.393.337.127.124.31.236.547.338.237.103.499.153.785.153.393 0 .72-.09.982-.27.262-.18.393-.446.393-.798a1.07 1.07 0 0 0-.215-.656 1.708 1.708 0 0 0-.565-.48 8.932 8.932 0 0 0-.767-.368 11.932 11.932 0 0 1-.84-.399 4.902 4.902 0 0 1-.774-.497 1.986 1.986 0 0 1-.565-.736 2.451 2.451 0 0 1-.214-1.05c0-.44.088-.829.264-1.165.175-.336.41-.598.705-.785.295-.187.61-.324.945-.41a4.231 4.231 0 0 1 1.069-.132 5.5 5.5 0 0 1 .675.044c.237.03.488.078.755.145.266.067.482.173.65.315a.645.645 0 0 1 .252.505c0 .182-.058.37-.172.565-.115.195-.27.292-.466.292-.074 0-.275-.078-.602-.233a2.514 2.514 0 0 0-1.092-.234c-.443 0-.784.085-1.025.252a.8.8 0 0 0-.363.694c0 .237.098.444.295.62.196.176.44.319.73.43.29.11.606.25.946.417.339.167.654.35.945.546.29.196.534.48.73.853.197.373.295.809.295 1.308 0 .839-.268 1.487-.804 1.943-.536.456-1.242.684-2.118.684-.777 0-1.444-.16-2-.48-.557-.318-.835-.666-.835-1.042Zm0 0" fill="#fafbfe" fill-rule="evenodd" data-name="Path 1883"/></g></g></svg>